<?xml version="1.0" standalone="no"?>
<!DOCTYPE svg PUBLIC "-//W3C//DTD SVG 20010904//EN"
 "http://www.w3.org/TR/2001/REC-SVG-20010904/DTD/svg10.dtd">
<svg version="1.0" xmlns="http://www.w3.org/2000/svg"
 width="190.000000pt" height="190.000000pt" viewBox="0 0 190.000000 190.000000"
 preserveAspectRatio="xMidYMid meet">
<metadata>
Created by potrace 1.11, written by Peter Selinger 2001-2013
</metadata>
<g transform="translate(0.000000,190.000000) scale(0.100000,-0.100000)"
fill="#000000" stroke="none">
<path d="M634 1698 l-64 -61 0 -63 c0 -41 -4 -63 -12 -66 -7 -2 -115 -3 -241
-3 l-227 0 2 -643 3 -644 27 -23 c15 -13 24 -25 21 -28 -3 -3 5 -3 18 0 12 4
20 2 17 -3 -7 -10 533 -11 549 -1 5 3 22 0 37 -8 14 -8 24 -11 22 -6 -3 4 210
8 473 7 264 -1 477 2 474 7 -4 6 20 11 40 8 5 -1 6 3 2 9 -3 5 -2 10 2 10 5 0
15 10 23 23 12 18 15 121 16 655 1 469 -1 632 -10 633 -6 1 -114 3 -241 3
l-229 2 -1 62 0 63 -65 64 -64 65 -254 0 -254 0 -64 -62z m576 -125 c0 -44 -4
-63 -12 -64 -19 -1 -481 -1 -493 0 -9 1 -10 27 -6 103 1 16 20 18 219 20 119
2 234 3 255 3 l37 0 0 -62z"/>
</g>
</svg>
